<svg xmlns="http://www.w3.org/2000/svg" version="1.1" xmlns:xlink="http://www.w3.org/1999/xlink" xmlns:svgjs="http://svgjs.dev/svgjs" viewBox="0 0 16.773068176203918 5.26622003167267"><g transform="matrix(1,0,0,1,0.7567385460175249,0.8440600158363349)"><rect width="16.773068176203918" height="5.26622003167267" x="-0.7567385460175255" y="-0.8440600158363352" fill="#262626"></rect><g><path d=" M 7.696105957031248 0.7545000000000001 L 7.087105957031248 0.7545000000000001 L 6.9536059570312485 1.05 L 6.871105957031249 1.05 L 7.354105957031249 0 L 7.430605957031249 0 L 7.9136059570312485 1.05 L 7.831105957031249 1.05 L 7.696105957031248 0.7545000000000001 Z M 7.667605957031249 0.6900000000000001 L 7.391605957031249 0.08400000000000007 L 7.1171059570312485 0.6900000000000001 L 7.667605957031249 0.6900000000000001 Z M 8.8480400390625 1.05 L 8.5975400390625 0.6990000000000001 Q 8.542040039062499 0.7065 8.495540039062499 0.7065 L 8.195540039062498 0.7065 L 8.195540039062498 1.05 L 8.119040039062499 1.05 L 8.119040039062499 0 L 8.495540039062499 0 Q 8.6935400390625 0 8.806040039062498 0.09375 Q 8.9185400390625 0.1875 8.9185400390625 0.354 Q 8.9185400390625 0.47850000000000004 8.854790039062499 0.56325 Q 8.7910400390625 0.648 8.672540039062499 0.6825000000000001 L 8.9350400390625 1.05 L 8.8480400390625 1.05 Z M 8.495540039062499 0.639 Q 8.6635400390625 0.639 8.7520400390625 0.5647500000000001 Q 8.8405400390625 0.49050000000000005 8.8405400390625 0.354 Q 8.8405400390625 0.21750000000000003 8.7520400390625 0.14325 Q 8.6635400390625 0.06900000000000006 8.495540039062499 0.06900000000000006 L 8.195540039062498 0.06900000000000006 L 8.195540039062498 0.639 L 8.495540039062499 0.639 Z M 9.93849609375 0.9810000000000001 L 9.93849609375 1.05 L 9.21399609375 1.05 L 9.21399609375 0 L 9.91599609375 0 L 9.91599609375 0.06900000000000006 L 9.290496093749999 0.06900000000000006 L 9.290496093749999 0.483 L 9.84999609375 0.483 L 9.84999609375 0.5505 L 9.290496093749999 0.5505 L 9.290496093749999 0.9810000000000001 L 9.93849609375 0.9810000000000001 Z M 10.8819140625 0.7545000000000001 L 10.2729140625 0.7545000000000001 L 10.1394140625 1.05 L 10.0569140625 1.05 L 10.539914062500001 0 L 10.6164140625 0 L 11.099414062500001 1.05 L 11.0169140625 1.05 L 10.8819140625 0.7545000000000001 Z M 10.8534140625 0.6900000000000001 L 10.5774140625 0.08400000000000007 L 10.302914062500001 0.6900000000000001 L 10.8534140625 0.6900000000000001 Z M 0.9075 2.4885 L 0.9075 2.5575 L 0.183 2.5575 L 0.183 1.5075 L 0.885 1.5075 L 0.885 1.5765000000000002 L 0.2595 1.5765000000000002 L 0.2595 1.9905 L 0.8190000000000001 1.9905 L 0.8190000000000001 2.0580000000000003 L 0.2595 2.0580000000000003 L 0.2595 2.4885 L 0.9075 2.4885 Z M 2.05641796875 1.5075 L 2.05641796875 2.5575 L 1.9934179687500002 2.5575 L 1.2779179687500002 1.6455000000000002 L 1.2779179687500002 2.5575 L 1.2014179687500002 2.5575 L 1.2014179687500002 1.5075 L 1.2659179687500002 1.5075 L 1.9799179687500001 2.4195 L 1.9799179687500001 1.5075 L 2.05641796875 1.5075 Z M 3.187365234375 2.037 L 3.260865234375 2.037 L 3.260865234375 2.43 Q 3.1918652343750002 2.496 3.093615234375 2.5305 Q 2.9953652343750004 2.565 2.885865234375 2.565 Q 2.7298652343750005 2.565 2.604615234375 2.496 Q 2.4793652343750003 2.427 2.4081152343750003 2.3055000000000003 Q 2.3368652343750003 2.184 2.3368652343750003 2.0325 Q 2.3368652343750003 1.8810000000000002 2.4081152343750003 1.7595 Q 2.4793652343750003 1.6380000000000001 2.604615234375 1.569 Q 2.7298652343750005 1.5 2.8873652343750003 1.5 Q 3.002865234375 1.5 3.0996152343750003 1.53675 Q 3.1963652343750004 1.5735000000000001 3.2653652343750004 1.6440000000000001 L 3.2173652343750003 1.695 Q 3.1513652343750005 1.629 3.069615234375 1.5997500000000002 Q 2.9878652343750005 1.5705 2.8888652343750003 1.5705 Q 2.753865234375 1.5705 2.6451152343750004 1.6305 Q 2.5363652343750003 1.6905000000000001 2.474865234375 1.7962500000000001 Q 2.413365234375 1.9020000000000001 2.413365234375 2.0325 Q 2.413365234375 2.1615 2.475615234375 2.26725 Q 2.5378652343750003 2.373 2.6458652343750004 2.4337500000000003 Q 2.753865234375 2.4945 2.8888652343750003 2.4945 Q 3.068865234375 2.4945 3.187365234375 2.3985000000000003 L 3.187365234375 2.037 Z M 3.6117890625 1.5075 L 3.6882890625000004 1.5075 L 3.6882890625000004 2.5575 L 3.6117890625 2.5575 L 3.6117890625 1.5075 Z M 4.924263427734376 1.5075 L 4.924263427734376 2.5575 L 4.861263427734375 2.5575 L 4.145763427734376 1.6455000000000002 L 4.145763427734376 2.5575 L 4.069263427734375 2.5575 L 4.069263427734375 1.5075 L 4.133763427734375 1.5075 L 4.8477634277343755 2.4195 L 4.8477634277343755 1.5075 L 4.924263427734376 1.5075 Z M 6.029710693359376 2.4885 L 6.029710693359376 2.5575 L 5.305210693359376 2.5575 L 5.305210693359376 1.5075 L 6.007210693359376 1.5075 L 6.007210693359376 1.5765000000000002 L 5.381710693359376 1.5765000000000002 L 5.381710693359376 1.9905 L 5.941210693359376 1.9905 L 5.941210693359376 2.0580000000000003 L 5.381710693359376 2.0580000000000003 L 5.381710693359376 2.4885 L 6.029710693359376 2.4885 Z M 7.048128662109376 2.4885 L 7.048128662109376 2.5575 L 6.3236286621093765 2.5575 L 6.3236286621093765 1.5075 L 7.025628662109376 1.5075 L 7.025628662109376 1.5765000000000002 L 6.400128662109377 1.5765000000000002 L 6.400128662109377 1.9905 L 6.959628662109377 1.9905 L 6.959628662109377 2.0580000000000003 L 6.400128662109377 2.0580000000000003 L 6.400128662109377 2.4885 L 7.048128662109376 2.4885 Z M 8.071046630859378 2.5575 L 7.820546630859377 2.2065 Q 7.765046630859377 2.214 7.718546630859377 2.214 L 7.418546630859377 2.214 L 7.418546630859377 2.5575 L 7.342046630859377 2.5575 L 7.342046630859377 1.5075 L 7.718546630859377 1.5075 Q 7.9165466308593775 1.5075 8.029046630859376 1.60125 Q 8.141546630859377 1.695 8.141546630859377 1.8615 Q 8.141546630859377 1.9860000000000002 8.077796630859376 2.0707500000000003 Q 8.014046630859378 2.1555 7.895546630859378 2.19 L 8.158046630859378 2.5575 L 8.071046630859378 2.5575 Z M 7.718546630859377 2.1465 Q 7.886546630859377 2.1465 7.975046630859377 2.07225 Q 8.063546630859378 1.9980000000000002 8.063546630859378 1.8615 Q 8.063546630859378 1.725 7.975046630859377 1.65075 Q 7.886546630859377 1.5765000000000002 7.718546630859377 1.5765000000000002 L 7.418546630859377 1.5765000000000002 L 7.418546630859377 2.1465 L 7.718546630859377 2.1465 Z M 8.437002685546878 1.5075 L 8.513502685546877 1.5075 L 8.513502685546877 2.5575 L 8.437002685546878 2.5575 L 8.437002685546878 1.5075 Z M 9.749477050781254 1.5075 L 9.749477050781254 2.5575 L 9.686477050781253 2.5575 L 8.970977050781253 1.6455000000000002 L 8.970977050781253 2.5575 L 8.894477050781253 2.5575 L 8.894477050781253 1.5075 L 8.958977050781254 1.5075 L 9.672977050781252 2.4195 L 9.672977050781252 1.5075 L 9.749477050781254 1.5075 Z M 10.880424316406254 2.037 L 10.953924316406255 2.037 L 10.953924316406255 2.43 Q 10.884924316406254 2.496 10.786674316406254 2.5305 Q 10.688424316406254 2.565 10.578924316406255 2.565 Q 10.422924316406254 2.565 10.297674316406255 2.496 Q 10.172424316406254 2.427 10.101174316406254 2.3055000000000003 Q 10.029924316406253 2.184 10.029924316406253 2.0325 Q 10.029924316406253 1.8810000000000002 10.101174316406254 1.7595 Q 10.172424316406254 1.6380000000000001 10.297674316406255 1.569 Q 10.422924316406254 1.5 10.580424316406255 1.5 Q 10.695924316406254 1.5 10.792674316406254 1.53675 Q 10.889424316406254 1.5735000000000001 10.958424316406255 1.6440000000000001 L 10.910424316406253 1.695 Q 10.844424316406254 1.629 10.762674316406255 1.5997500000000002 Q 10.680924316406253 1.5705 10.581924316406255 1.5705 Q 10.446924316406253 1.5705 10.338174316406255 1.6305 Q 10.229424316406254 1.6905000000000001 10.167924316406253 1.7962500000000001 Q 10.106424316406255 1.9020000000000001 10.106424316406255 2.0325 Q 10.106424316406255 2.1615 10.168674316406253 2.26725 Q 10.230924316406254 2.373 10.338924316406255 2.4337500000000003 Q 10.446924316406253 2.4945 10.581924316406255 2.4945 Q 10.761924316406255 2.4945 10.880424316406254 2.3985000000000003 L 10.880424316406254 2.037 Z" fill="#ffffff" fill-rule="nonzero"></path></g><g><path d=" M 4.748765625 3.5781 L 4.628765625 3.40935 Q 4.608515625 3.4116 4.586765625 3.4116 L 4.445765625 3.4116 L 4.445765625 3.5781 L 4.390265625 3.5781 L 4.390265625 3.0531 L 4.586765625 3.0531 Q 4.687265625 3.0531 4.744265625 3.1011 Q 4.801265625 3.1491000000000002 4.801265625 3.2331 Q 4.801265625 3.2946 4.770140625 3.3369750000000002 Q 4.739015625 3.37935 4.681265625 3.3981 L 4.8095156249999995 3.5781 L 4.748765625 3.5781 Z M 4.704515625 3.32985 Q 4.745765625 3.29535 4.745765625 3.2331 Q 4.745765625 3.16935 4.704515625 3.135225 Q 4.663265625 3.1011 4.585265625 3.1011 L 4.445765625 3.1011 L 4.445765625 3.36435 L 4.585265625 3.36435 Q 4.663265625 3.36435 4.704515625 3.32985 Z M 5.311236694335937 3.5301 L 5.311236694335937 3.5781 L 4.939986694335937 3.5781 L 4.939986694335937 3.0531 L 5.299986694335938 3.0531 L 5.299986694335938 3.1011 L 4.995486694335938 3.1011 L 4.995486694335938 3.28785 L 5.266986694335937 3.28785 L 5.266986694335937 3.3351 L 4.995486694335938 3.3351 L 4.995486694335938 3.5301 L 5.311236694335937 3.5301 Z M 5.778445678710938 3.43785 L 5.485945678710938 3.43785 L 5.422945678710938 3.5781 L 5.365195678710938 3.5781 L 5.605195678710938 3.0531 L 5.659945678710938 3.0531 L 5.899945678710938 3.5781 L 5.841445678710938 3.5781 L 5.778445678710938 3.43785 Z M 5.758195678710938 3.39285 L 5.632195678710938 3.11085 L 5.506195678710938 3.39285 L 5.758195678710938 3.39285 Z M 5.9944306640625005 3.0531 L 6.049930664062501 3.0531 L 6.049930664062501 3.5301 L 6.3439306640625 3.5301 L 6.3439306640625 3.5781 L 5.9944306640625005 3.5781 L 5.9944306640625005 3.0531 Z M 6.443672607421876 3.0531 L 6.499172607421876 3.0531 L 6.499172607421876 3.5781 L 6.443672607421876 3.5781 L 6.443672607421876 3.0531 Z M 7.056378295898439 3.5301 L 7.056378295898439 3.5781 L 6.625878295898439 3.5781 L 6.625878295898439 3.53985 L 6.973878295898439 3.1011 L 6.6311282958984386 3.1011 L 6.6311282958984386 3.0531 L 7.047378295898439 3.0531 L 7.047378295898439 3.0913500000000003 L 6.7001282958984385 3.5301 L 7.056378295898439 3.5301 Z M 7.173333251953126 3.0531 L 7.228833251953127 3.0531 L 7.228833251953127 3.5781 L 7.173333251953126 3.5781 L 7.173333251953126 3.0531 Z M 7.84603894042969 3.0531 L 7.84603894042969 3.5781 L 7.80028894042969 3.5781 L 7.462788940429689 3.1521 L 7.462788940429689 3.5781 L 7.407288940429689 3.5781 L 7.407288940429689 3.0531 L 7.453038940429689 3.0531 L 7.7912889404296894 3.4791 L 7.7912889404296894 3.0531 L 7.84603894042969 3.0531 Z M 8.39428015136719 3.3156 L 8.44753015136719 3.3156 L 8.44753015136719 3.51585 Q 8.41078015136719 3.5481000000000003 8.36053015136719 3.56535 Q 8.31028015136719 3.5826000000000002 8.25478015136719 3.5826000000000002 Q 8.17603015136719 3.5826000000000002 8.11303015136719 3.5481000000000003 Q 8.05003015136719 3.5136000000000003 8.014030151367189 3.452475 Q 7.978030151367189 3.39135 7.978030151367189 3.3156 Q 7.978030151367189 3.23985 8.014030151367189 3.178725 Q 8.05003015136719 3.1176 8.11303015136719 3.0831 Q 8.17603015136719 3.0486 8.25553015136719 3.0486 Q 8.31553015136719 3.0486 8.36578015136719 3.0677250000000003 Q 8.41603015136719 3.08685 8.45053015136719 3.12435 L 8.41603015136719 3.1596 Q 8.35378015136719 3.0981 8.25778015136719 3.0981 Q 8.19403015136719 3.0981 8.14265515136719 3.126225 Q 8.09128015136719 3.15435 8.062030151367189 3.204225 Q 8.03278015136719 3.2541 8.03278015136719 3.3156 Q 8.03278015136719 3.3771 8.062030151367189 3.4266 Q 8.09128015136719 3.4761 8.14228015136719 3.5046 Q 8.19328015136719 3.5331 8.25703015136719 3.5331 Q 8.338030151367189 3.5331 8.39428015136719 3.4926 L 8.39428015136719 3.3156 Z M 8.81571423339844 3.0531 L 8.87121423339844 3.0531 L 8.87121423339844 3.5781 L 8.81571423339844 3.5781 L 8.81571423339844 3.0531 Z M 9.049669921875003 3.0531 L 9.263419921875004 3.0531 Q 9.346669921875003 3.0531 9.410419921875004 3.086475 Q 9.474169921875003 3.11985 9.509419921875002 3.179475 Q 9.544669921875004 3.2391 9.544669921875004 3.3156 Q 9.544669921875004 3.3921 9.509419921875002 3.451725 Q 9.474169921875003 3.51135 9.410419921875004 3.544725 Q 9.346669921875003 3.5781 9.263419921875004 3.5781 L 9.049669921875003 3.5781 L 9.049669921875003 3.0531 Z M 9.260419921875004 3.5301 Q 9.329419921875003 3.5301 9.381169921875003 3.502725 Q 9.432919921875003 3.47535 9.461419921875002 3.426975 Q 9.489919921875003 3.3786 9.489919921875003 3.3156 Q 9.489919921875003 3.2526 9.461419921875002 3.204225 Q 9.432919921875003 3.15585 9.381169921875003 3.128475 Q 9.329419921875003 3.1011 9.260419921875004 3.1011 L 9.105169921875003 3.1011 L 9.105169921875003 3.5301 L 9.260419921875004 3.5301 Z M 10.04791149902344 3.5301 L 10.04791149902344 3.5781 L 9.67666149902344 3.5781 L 9.67666149902344 3.0531 L 10.036661499023442 3.0531 L 10.036661499023442 3.1011 L 9.73216149902344 3.1011 L 9.73216149902344 3.28785 L 10.00366149902344 3.28785 L 10.00366149902344 3.3351 L 9.73216149902344 3.3351 L 9.73216149902344 3.5301 L 10.04791149902344 3.5301 Z M 10.51512048339844 3.43785 L 10.22262048339844 3.43785 L 10.159620483398442 3.5781 L 10.101870483398441 3.5781 L 10.341870483398441 3.0531 L 10.396620483398442 3.0531 L 10.636620483398442 3.5781 L 10.578120483398441 3.5781 L 10.51512048339844 3.43785 Z M 10.494870483398442 3.39285 L 10.36887048339844 3.11085 L 10.242870483398441 3.39285 L 10.494870483398442 3.39285 Z M 10.763730468750003 3.56385 Q 10.710105468750005 3.5451 10.680855468750003 3.51435 L 10.702605468750004 3.4716 Q 10.731105468750004 3.5001 10.778355468750004 3.517725 Q 10.825605468750004 3.53535 10.875855468750004 3.53535 Q 10.946355468750005 3.53535 10.981605468750004 3.509475 Q 11.016855468750004 3.4836 11.016855468750004 3.4423500000000002 Q 11.016855468750004 3.41085 10.997730468750003 3.3921 Q 10.978605468750004 3.37335 10.950855468750003 3.363225 Q 10.923105468750004 3.3531 10.873605468750004 3.3411 Q 10.814355468750003 3.3261000000000003 10.779105468750004 3.312225 Q 10.743855468750004 3.29835 10.718730468750003 3.26985 Q 10.693605468750004 3.24135 10.693605468750004 3.1926 Q 10.693605468750004 3.15285 10.714605468750005 3.120225 Q 10.735605468750004 3.0876 10.779105468750004 3.0681000000000003 Q 10.822605468750004 3.0486 10.887105468750004 3.0486 Q 10.932105468750004 3.0486 10.975230468750004 3.060975 Q 11.018355468750004 3.07335 11.049855468750003 3.0951 L 11.031105468750004 3.13935 Q 10.998105468750003 3.1176 10.960605468750003 3.106725 Q 10.923105468750004 3.09585 10.887105468750004 3.09585 Q 10.818105468750003 3.09585 10.783230468750004 3.122475 Q 10.748355468750004 3.1491000000000002 10.748355468750004 3.1911 Q 10.748355468750004 3.2226 10.767480468750003 3.241725 Q 10.786605468750004 3.26085 10.815480468750003 3.270975 Q 10.844355468750004 3.2811 10.893105468750004 3.2931 Q 10.950855468750003 3.30735 10.986480468750004 3.321225 Q 11.022105468750004 3.3351 11.046855468750003 3.363225 Q 11.071605468750004 3.39135 11.071605468750004 3.43935 Q 11.071605468750004 3.4791 11.050230468750003 3.511725 Q 11.028855468750004 3.54435 10.984605468750004 3.563475 Q 10.940355468750004 3.5826000000000002 10.875855468750004 3.5826000000000002 Q 10.817355468750003 3.5826000000000002 10.763730468750003 3.56385 Z" fill="#fbe5c1" fill-rule="nonzero"></path></g><g clip-path="url(&quot;#SvgjsClipPath1027&quot;)"><g clip-path="url(&quot;#SvgjsClipPath1008&quot;)"><path d=" M 13.38321961435006 3.52643595451866 C 13.997310401875787 3.5264174494474583 14.495116073148086 3.0285867760822285 14.49510373652689 2.4144959884015993 C 14.495091399905693 1.8004052007209705 13.997265726949003 1.3025945288392202 13.383174939175435 1.3026006970104103 C 12.769084151401866 1.3026068651816 12.271268478960893 1.8004275376795202 12.271268478682076 2.4145183254840656 C 12.271286983492079 3.0286188950784183 12.769119044482892 3.526435954799119 13.383219614353052 3.52643595451866 Z M 13.38321961435006 3.66542146981881 C 13.88917930943346 3.6654214696373106 14.345318325448993 3.3606369139297714 14.53893758791024 2.8931898107695826 C 14.732556850371488 2.425742707609394 14.62552587889036 1.8876899235135711 14.267753556013847 1.5299271836531525 C 13.909981233137334 1.1721644437927339 13.371925582346307 1.0651478844138058 12.904483665560898 1.2587796676542446 C 12.437041748775489 1.4524114508946837 12.132269411132098 1.908558630582164 12.132282963381925 2.4145183254840665 C 12.132301468235662 3.1053784756304683 12.692359463961552 3.6654214700682184 13.383219614352921 3.66542146981881 Z" fill="#17d7a0" transform="matrix(1,0,0,1,0,0)" fill-rule="evenodd"></path></g><g clip-path="url(&quot;#SvgjsClipPath1008&quot;)"><path d=" M 13.38321961435006 3.52643595451866 C 13.917286506192701 3.526435954346712 14.39876510338004 3.2047200318180487 14.603140524379114 2.711305264858332 C 14.807515945378189 2.2178904978986154 14.69453946852962 1.6499476398249875 14.31689235622771 1.2723101105293804 C 13.939245243925802 0.8946725812337734 13.371299519157489 0.7817105164715176 12.87788993856284 0.9860984582388148 C 12.38448035796819 1.1904864000061122 12.06277665348632 1.671973160863146 12.06279020573185 2.20604005253384 C 12.06279020573185 2.5562366247527653 12.201907545589556 2.892089566866919 12.449537058181583 3.1397127955623647 C 12.69716657077361 3.3873360242578103 13.033023043094163 3.5264448412904184 13.383219614775193 3.526435954518649 Z M 13.38321961435006 3.66542146981881 C 13.97350089971059 3.6654214696632375 14.5056586592394 3.309842813490417 14.73154639731166 2.7644927189314465 C 14.957434135383922 2.219142624372477 14.832566647798307 1.5914196183447795 14.415169956645112 1.1740325101810944 C 13.997773265491915 0.7566454020174094 13.370047392770424 0.6317923264908764 12.82470248455987 0.8576925853125579 C 12.279357576349316 1.0835928441342397 11.92379113819354 1.6157587673288818 11.9238046904317 2.20604005253384 C 11.9238046904317 2.5930978752113587 12.077565105028581 2.9643023269731446 12.351259457804668 3.2379903958701624 C 12.624953810580752 3.51167846476718 12.996161792543854 3.6654303565658015 13.383219614734706 3.665421469818801 Z" fill="#32c1cd" transform="matrix(1,0,0,1,0,0)" fill-rule="evenodd"></path></g><g clip-path="url(&quot;#SvgjsClipPath1008&quot;)"><path d=" M 13.38321961435006 3.52643595451866 C 14.22761201077946 3.52643595451866 14.912127295918491 2.8419206693796264 14.912127295918491 1.9975282729502257 C 14.912127295918491 1.1531358765208253 14.22761201077946 0.46862059138179224 13.38321961435006 0.46862059138179224 C 12.538827217920659 0.46862059138179224 11.854311932781625 1.1531358765208253 11.854311932781625 1.9975282729502257 C 11.854303045919647 2.4030225258682867 12.015381074639768 2.791911340598382 12.302108810676103 3.078639076632509 C 12.588836546712438 3.3653668126666343 12.977725361443774 3.5264448413837624 13.383219614355948 3.52643595451866 Z M 13.38321961435006 3.66542146981881 C 14.304371591327108 3.66542146981881 15.051112811218642 2.9186802499272746 15.051112811218642 1.9975282729502257 C 15.051112811218642 1.0763762959731777 14.304371591327108 0.3296350760816419 13.38321961435006 0.3296350760816419 C 12.46206763737301 0.3296350760816419 11.715326417481474 1.0763762959731777 11.715326417481474 1.9975282729502257 C 11.715326417481474 2.9186802499272746 12.46206763737301 3.66542146981881 13.38321961435006 3.66542146981881 Z" fill="#6166b3" transform="matrix(1,0,0,1,0,0)" fill-rule="evenodd"></path></g><g clip-path="url(&quot;#SvgjsClipPath1008&quot;)"><path d=" M 13.38321961435006 3.52643595451866 C 14.34275138160093 3.52643595451866 15.120605568868719 2.7485817672508723 15.120605568868719 1.7890500000000005 C 15.120605568868719 0.8295182327491285 14.34275138160093 0.051664045481341125 13.383219614350057 0.051664045481341125 C 12.423687847099186 0.051664045481341125 11.6458336598314 0.8295182327491283 11.6458336598314 1.78905 C 11.64585216435174 2.748574102324901 12.423695512028155 3.5264174499999736 13.383219614351557 3.52643595451866 Z M 13.38321961435006 3.66542146981881 C 14.419510962148578 3.66542146981881 15.259591084168868 2.8253413477985188 15.259591084168868 1.78905 C 15.259591084168868 0.7527586522014809 14.419510962148578 -0.08732146981880962 13.38321961435006 -0.08732146981880962 C 12.34692826655154 -0.08732146981880962 11.506848144531249 0.7527586522014805 11.506848144531249 1.7890499999999998 C 11.506848144531249 2.8253413477985196 12.34692826655154 3.66542146981881 13.38321961435006 3.66542146981881 Z" fill="#544179" transform="matrix(1,0,0,1,0,0)" fill-rule="evenodd"></path></g></g></g><defs><clipPath id="SvgjsClipPath1027"><path d=" M 11.506848144531249 -0.08732146981880962 h 3.7527429396376193 v 3.7527429396376193 h -3.7527429396376193 Z"></path></clipPath><clipPath id="SvgjsClipPath1008"><path d=" M 11.506848144531249 -0.08732146981880962 L 15.259591084168868 -0.08732146981880962 L 15.259591084168868 3.66542146981881 L 11.506848144531249 3.66542146981881 Z"></path></clipPath></defs></svg>